<mxfile host="app.diagrams.net" modified="2023-06-15T22:01:05.431Z" agent="Mozilla/5.0 (Windows NT 10.0; Win64; x64; rv:109.0) Gecko/20100101 Firefox/114.0" etag="QskYSGvRDorDLGzWPhr8" version="21.3.8" type="device">
  <diagram name="PÃ¡gina-1" id="hIdw7GX1ASYOn8H_Ma61">
    <mxGraphModel dx="1195" dy="645" grid="1" gridSize="10" guides="1" tooltips="1" connect="1" arrows="1" fold="1" page="1" pageScale="1" pageWidth="827" pageHeight="1169" math="0" shadow="0">
      <root>
        <mxCell id="0" />
        <mxCell id="1" parent="0" />
        <mxCell id="8cAwJ6GLL2mugwVVrupS-14" style="edgeStyle=orthogonalEdgeStyle;rounded=0;orthogonalLoop=1;jettySize=auto;html=1;exitX=1;exitY=0.5;exitDx=0;exitDy=0;fillColor=#ffe6cc;strokeColor=#d79b00;" parent="1" source="8cAwJ6GLL2mugwVVrupS-1" target="8cAwJ6GLL2mugwVVrupS-12" edge="1">
          <mxGeometry relative="1" as="geometry" />
        </mxCell>
        <mxCell id="8cAwJ6GLL2mugwVVrupS-24" style="edgeStyle=orthogonalEdgeStyle;rounded=0;orthogonalLoop=1;jettySize=auto;html=1;exitX=1;exitY=0.75;exitDx=0;exitDy=0;fillColor=#d0cee2;strokeColor=#56517e;" parent="1" source="8cAwJ6GLL2mugwVVrupS-1" target="BNi5xJKZm6hASNBu7pdP-1" edge="1">
          <mxGeometry relative="1" as="geometry">
            <mxPoint x="379" y="360" as="targetPoint" />
          </mxGeometry>
        </mxCell>
        <mxCell id="8cAwJ6GLL2mugwVVrupS-1" value="UserAPI" style="rounded=1;whiteSpace=wrap;html=1;fillColor=#ffe6cc;strokeColor=#d79b00;" parent="1" vertex="1">
          <mxGeometry x="240" y="190" width="100" height="40" as="geometry" />
        </mxCell>
        <mxCell id="8cAwJ6GLL2mugwVVrupS-15" style="edgeStyle=orthogonalEdgeStyle;rounded=0;orthogonalLoop=1;jettySize=auto;html=1;exitX=1;exitY=0.5;exitDx=0;exitDy=0;fillColor=#ffe6cc;strokeColor=#d79b00;" parent="1" source="8cAwJ6GLL2mugwVVrupS-2" target="8cAwJ6GLL2mugwVVrupS-12" edge="1">
          <mxGeometry relative="1" as="geometry">
            <Array as="points">
              <mxPoint x="615" y="350" />
            </Array>
          </mxGeometry>
        </mxCell>
        <mxCell id="8cAwJ6GLL2mugwVVrupS-25" style="edgeStyle=orthogonalEdgeStyle;rounded=0;orthogonalLoop=1;jettySize=auto;html=1;exitX=1;exitY=0.75;exitDx=0;exitDy=0;fillColor=#d0cee2;strokeColor=#56517e;" parent="1" source="8cAwJ6GLL2mugwVVrupS-2" target="BNi5xJKZm6hASNBu7pdP-1" edge="1">
          <mxGeometry relative="1" as="geometry">
            <Array as="points">
              <mxPoint x="340" y="340" />
              <mxPoint x="460" y="340" />
            </Array>
            <mxPoint x="360" y="360" as="targetPoint" />
          </mxGeometry>
        </mxCell>
        <mxCell id="PaM1D0am64lW21tULsb2-2" style="edgeStyle=orthogonalEdgeStyle;rounded=0;orthogonalLoop=1;jettySize=auto;html=1;fillColor=#ffe6cc;strokeColor=#d79b00;" edge="1" parent="1" source="8cAwJ6GLL2mugwVVrupS-2" target="PaM1D0am64lW21tULsb2-1">
          <mxGeometry relative="1" as="geometry">
            <Array as="points">
              <mxPoint x="140" y="350" />
            </Array>
          </mxGeometry>
        </mxCell>
        <mxCell id="8cAwJ6GLL2mugwVVrupS-2" value="&lt;div&gt;NoteAPI&lt;/div&gt;" style="rounded=1;whiteSpace=wrap;html=1;fillColor=#ffe6cc;strokeColor=#d79b00;" parent="1" vertex="1">
          <mxGeometry x="240" y="330" width="100" height="40" as="geometry" />
        </mxCell>
        <mxCell id="8cAwJ6GLL2mugwVVrupS-3" value="" style="image;points=[];aspect=fixed;html=1;align=center;shadow=0;dashed=0;image=img/lib/allied_telesis/computer_and_terminals/Personal_Computer.svg;" parent="1" vertex="1">
          <mxGeometry x="720" y="234.1" width="60.36" height="81.8" as="geometry" />
        </mxCell>
        <mxCell id="8cAwJ6GLL2mugwVVrupS-10" style="edgeStyle=orthogonalEdgeStyle;rounded=0;orthogonalLoop=1;jettySize=auto;html=1;exitX=0.5;exitY=0;exitDx=0;exitDy=0;fillColor=#fff2cc;strokeColor=#d6b656;" parent="1" source="8cAwJ6GLL2mugwVVrupS-9" target="8cAwJ6GLL2mugwVVrupS-1" edge="1">
          <mxGeometry relative="1" as="geometry">
            <Array as="points">
              <mxPoint x="140" y="210" />
            </Array>
          </mxGeometry>
        </mxCell>
        <mxCell id="8cAwJ6GLL2mugwVVrupS-9" value="&lt;div&gt;Feign&lt;br&gt;&lt;/div&gt;&lt;div&gt;User Client&lt;/div&gt;" style="rounded=0;whiteSpace=wrap;html=1;fillColor=#fff2cc;strokeColor=#d6b656;" parent="1" vertex="1">
          <mxGeometry x="100" y="230" width="80" height="30" as="geometry" />
        </mxCell>
        <mxCell id="8cAwJ6GLL2mugwVVrupS-13" style="edgeStyle=orthogonalEdgeStyle;rounded=0;orthogonalLoop=1;jettySize=auto;html=1;fillColor=#f8cecc;strokeColor=#b85450;" parent="1" source="8cAwJ6GLL2mugwVVrupS-12" target="8cAwJ6GLL2mugwVVrupS-3" edge="1">
          <mxGeometry relative="1" as="geometry" />
        </mxCell>
        <mxCell id="8cAwJ6GLL2mugwVVrupS-12" value="Gateway" style="rounded=0;whiteSpace=wrap;html=1;fillColor=#f8cecc;strokeColor=#b85450;" parent="1" vertex="1">
          <mxGeometry x="570" y="250" width="90" height="50" as="geometry" />
        </mxCell>
        <mxCell id="PaM1D0am64lW21tULsb2-10" style="edgeStyle=orthogonalEdgeStyle;rounded=0;orthogonalLoop=1;jettySize=auto;html=1;fillColor=#d5e8d4;strokeColor=#82b366;" edge="1" parent="1" source="8cAwJ6GLL2mugwVVrupS-16" target="8cAwJ6GLL2mugwVVrupS-1">
          <mxGeometry relative="1" as="geometry">
            <Array as="points">
              <mxPoint x="290" y="270" />
            </Array>
          </mxGeometry>
        </mxCell>
        <mxCell id="PaM1D0am64lW21tULsb2-11" style="edgeStyle=orthogonalEdgeStyle;rounded=0;orthogonalLoop=1;jettySize=auto;html=1;exitX=1;exitY=0.5;exitDx=0;exitDy=0;fillColor=#d5e8d4;strokeColor=#82b366;" edge="1" parent="1" source="8cAwJ6GLL2mugwVVrupS-16" target="8cAwJ6GLL2mugwVVrupS-21">
          <mxGeometry relative="1" as="geometry">
            <Array as="points">
              <mxPoint x="400" y="425" />
            </Array>
          </mxGeometry>
        </mxCell>
        <mxCell id="PaM1D0am64lW21tULsb2-12" style="edgeStyle=orthogonalEdgeStyle;rounded=0;orthogonalLoop=1;jettySize=auto;html=1;fillColor=#d5e8d4;strokeColor=#82b366;" edge="1" parent="1" source="8cAwJ6GLL2mugwVVrupS-16" target="8cAwJ6GLL2mugwVVrupS-12">
          <mxGeometry relative="1" as="geometry">
            <Array as="points">
              <mxPoint x="480" y="280" />
              <mxPoint x="480" y="280" />
            </Array>
          </mxGeometry>
        </mxCell>
        <mxCell id="PaM1D0am64lW21tULsb2-15" style="edgeStyle=orthogonalEdgeStyle;rounded=0;orthogonalLoop=1;jettySize=auto;html=1;fillColor=#d5e8d4;strokeColor=#82b366;" edge="1" parent="1" source="8cAwJ6GLL2mugwVVrupS-16" target="8cAwJ6GLL2mugwVVrupS-2">
          <mxGeometry relative="1" as="geometry">
            <Array as="points">
              <mxPoint x="290" y="290" />
            </Array>
          </mxGeometry>
        </mxCell>
        <mxCell id="8cAwJ6GLL2mugwVVrupS-16" value="&lt;div&gt;Config&lt;/div&gt;&lt;div&gt;Server&lt;br&gt;&lt;/div&gt;" style="rounded=0;whiteSpace=wrap;html=1;fillColor=#d5e8d4;strokeColor=#82b366;" parent="1" vertex="1">
          <mxGeometry x="340" y="260" width="80" height="40" as="geometry" />
        </mxCell>
        <mxCell id="8cAwJ6GLL2mugwVVrupS-22" style="edgeStyle=orthogonalEdgeStyle;rounded=0;orthogonalLoop=1;jettySize=auto;html=1;fillColor=#dae8fc;strokeColor=#6c8ebf;" parent="1" source="8cAwJ6GLL2mugwVVrupS-21" target="8cAwJ6GLL2mugwVVrupS-1" edge="1">
          <mxGeometry relative="1" as="geometry">
            <Array as="points">
              <mxPoint x="520" y="200" />
            </Array>
          </mxGeometry>
        </mxCell>
        <mxCell id="8cAwJ6GLL2mugwVVrupS-23" style="edgeStyle=orthogonalEdgeStyle;rounded=0;orthogonalLoop=1;jettySize=auto;html=1;fillColor=#dae8fc;strokeColor=#6c8ebf;" parent="1" source="8cAwJ6GLL2mugwVVrupS-21" target="8cAwJ6GLL2mugwVVrupS-2" edge="1">
          <mxGeometry relative="1" as="geometry">
            <Array as="points">
              <mxPoint x="510" y="360" />
            </Array>
          </mxGeometry>
        </mxCell>
        <mxCell id="8cAwJ6GLL2mugwVVrupS-21" value="Eureka Server" style="rounded=0;whiteSpace=wrap;html=1;fillColor=#dae8fc;strokeColor=#6c8ebf;" parent="1" vertex="1">
          <mxGeometry x="490" y="400" width="70" height="50" as="geometry" />
        </mxCell>
        <mxCell id="BNi5xJKZm6hASNBu7pdP-1" value="" style="swimlane;startSize=0;fillColor=#e1d5e7;strokeColor=#9673a6;" parent="1" vertex="1">
          <mxGeometry x="320" y="30" width="250" height="130" as="geometry" />
        </mxCell>
        <mxCell id="BNi5xJKZm6hASNBu7pdP-2" value="Docker" style="text;html=1;align=center;verticalAlign=middle;resizable=0;points=[];autosize=1;strokeColor=none;fillColor=none;" parent="BNi5xJKZm6hASNBu7pdP-1" vertex="1">
          <mxGeometry x="190" width="60" height="30" as="geometry" />
        </mxCell>
        <mxCell id="8cAwJ6GLL2mugwVVrupS-6" value="Zipkin" style="rhombus;whiteSpace=wrap;html=1;" parent="BNi5xJKZm6hASNBu7pdP-1" vertex="1">
          <mxGeometry x="130" y="25" width="80" height="80" as="geometry" />
        </mxCell>
        <mxCell id="8cAwJ6GLL2mugwVVrupS-5" value="&lt;div&gt;MySQL&lt;/div&gt;&lt;div&gt;DB&lt;br&gt;&lt;/div&gt;" style="shape=cylinder3;whiteSpace=wrap;html=1;boundedLbl=1;backgroundOutline=1;size=15;fillColor=none;" parent="BNi5xJKZm6hASNBu7pdP-1" vertex="1">
          <mxGeometry x="40" y="25" width="60" height="80" as="geometry" />
        </mxCell>
        <mxCell id="PaM1D0am64lW21tULsb2-3" style="edgeStyle=orthogonalEdgeStyle;rounded=0;orthogonalLoop=1;jettySize=auto;html=1;exitX=0.5;exitY=0;exitDx=0;exitDy=0;fillColor=#ffe6cc;strokeColor=#d79b00;" edge="1" parent="1" source="PaM1D0am64lW21tULsb2-1" target="8cAwJ6GLL2mugwVVrupS-9">
          <mxGeometry relative="1" as="geometry" />
        </mxCell>
        <mxCell id="PaM1D0am64lW21tULsb2-1" value="&lt;div&gt;Circuit&lt;/div&gt;&lt;div&gt;Breaker&lt;br&gt;&lt;/div&gt;" style="rounded=0;whiteSpace=wrap;html=1;fillColor=#bac8d3;strokeColor=#23445d;" vertex="1" parent="1">
          <mxGeometry x="100" y="300" width="80" height="30" as="geometry" />
        </mxCell>
        <mxCell id="PaM1D0am64lW21tULsb2-14" value="" style="edgeStyle=orthogonalEdgeStyle;rounded=0;orthogonalLoop=1;jettySize=auto;html=1;fillColor=#d5e8d4;strokeColor=#82b366;" edge="1" parent="1" source="PaM1D0am64lW21tULsb2-6" target="8cAwJ6GLL2mugwVVrupS-16">
          <mxGeometry relative="1" as="geometry" />
        </mxCell>
        <mxCell id="PaM1D0am64lW21tULsb2-6" value="&lt;div&gt;GitHub&lt;/div&gt;&lt;div&gt;Config&lt;br&gt;&lt;/div&gt;" style="shape=cylinder3;whiteSpace=wrap;html=1;boundedLbl=1;backgroundOutline=1;size=15;fillColor=#d5e8d4;strokeColor=#82b366;" vertex="1" parent="1">
          <mxGeometry x="350" y="440" width="60" height="80" as="geometry" />
        </mxCell>
      </root>
    </mxGraphModel>
  </diagram>
</mxfile>
